<svg width="24" height="25" viewBox="0 0 24 25" fill="none" xmlns="http://www.w3.org/2000/svg">
<g clip-path="url(#clip0_1_426)">
<path fill-rule="evenodd" clip-rule="evenodd" d="M12 2.75C6.61522 2.75 2.25 7.11522 2.25 12.5C2.25 17.8848 6.61522 22.25 12 22.25C17.3848 22.25 21.75 17.8848 21.75 12.5C21.7443 7.11758 17.3824 2.75568 12 2.75ZM12.75 20.7153V14.75H15C15.4142 14.75 15.75 14.4142 15.75 14C15.75 13.5858 15.4142 13.25 15 13.25H12.75V11C12.75 10.1716 13.4216 9.5 14.25 9.5H15.75C16.1642 9.5 16.5 9.16421 16.5 8.75C16.5 8.33579 16.1642 8 15.75 8H14.25C12.5931 8 11.25 9.34315 11.25 11V13.25H9C8.58579 13.25 8.25 13.5858 8.25 14C8.25 14.4142 8.58579 14.75 9 14.75H11.25V20.7153C6.85788 20.3144 3.55787 16.5299 3.75854 12.1241C3.95922 7.71827 7.58962 4.24947 12 4.24947C16.4104 4.24947 20.0408 7.71827 20.2415 12.1241C20.4421 16.5299 17.1421 20.3144 12.75 20.7153Z" fill="#637587"/>
</g>
<defs>
<clipPath id="clip0_1_426">
<rect width="24" height="24" fill="white" transform="translate(0 0.5)"/>
</clipPath>
</defs>
</svg>
