<svg width="20" height="21" viewBox="0 0 20 21" fill="none" xmlns="http://www.w3.org/2000/svg">
<g clip-path="url(#clip0_5_157)">
<path fill-rule="evenodd" clip-rule="evenodd" d="M18.7359 12.5938L17.7984 5.09375C17.6803 4.15601 16.8827 3.4528 15.9375 3.45312H2.5C1.80964 3.45312 1.25 4.01277 1.25 4.70312V11.5781C1.25 12.2685 1.80964 12.8281 2.5 12.8281H5.86406L8.81563 18.7328C8.9216 18.9446 9.13818 19.0783 9.375 19.0781C11.1009 19.0781 12.5 17.679 12.5 15.9531V14.7031H16.875C17.4132 14.7033 17.9256 14.4722 18.2817 14.0686C18.6378 13.6649 18.8032 13.1278 18.7359 12.5938ZM5.625 11.5781H2.5V4.70312H5.625V11.5781ZM17.3438 13.2414C17.2259 13.377 17.0547 13.4543 16.875 13.4531H11.875C11.5298 13.4531 11.25 13.7329 11.25 14.0781V15.9531C11.2502 16.847 10.6195 17.6168 9.74297 17.7922L6.875 12.0555V4.70312H15.9375C16.2526 4.70302 16.5184 4.93742 16.5578 5.25L17.4953 12.75C17.519 12.9281 17.4636 13.1076 17.3438 13.2414Z" fill="#637587"/>
</g>
<defs>
<clipPath id="clip0_5_157">
<rect width="20" height="20" fill="white" transform="translate(0 0.328125)"/>
</clipPath>
</defs>
</svg>
