<svg width="20" height="21" viewBox="0 0 20 21" fill="none" xmlns="http://www.w3.org/2000/svg">
<g clip-path="url(#clip0_5_151)">
<path fill-rule="evenodd" clip-rule="evenodd" d="M18.2812 6.5875C17.9252 6.18406 17.4131 5.95302 16.875 5.95312H12.5V4.70312C12.5 2.97724 11.1009 1.57812 9.375 1.57812C9.13818 1.57796 8.9216 1.71165 8.81563 1.92344L5.86406 7.82812H2.5C1.80964 7.82812 1.25 8.38777 1.25 9.07812V15.9531C1.25 16.6435 1.80964 17.2031 2.5 17.2031H15.9375C16.8827 17.2034 17.6803 16.5002 17.7984 15.5625L18.7359 8.0625C18.8032 7.52836 18.6375 6.99109 18.2812 6.5875ZM2.5 9.07812H5.625V15.9531H2.5V9.07812ZM17.4953 7.90625L16.5578 15.4062C16.5184 15.7188 16.2526 15.9532 15.9375 15.9531H6.875V8.60078L9.74297 2.86406C10.6195 3.03949 11.2502 3.80925 11.25 4.70312V6.57812C11.25 6.9233 11.5298 7.20312 11.875 7.20312H16.875C17.0544 7.20306 17.2252 7.28011 17.3439 7.41465C17.4626 7.54918 17.5177 7.72824 17.4953 7.90625Z" fill="#637587"/>
</g>
<defs>
<clipPath id="clip0_5_151">
<rect width="20" height="20" fill="white" transform="translate(0 0.328125)"/>
</clipPath>
</defs>
</svg>
