<svg width="24" height="24" viewBox="0 0 24 24" fill="none" xmlns="http://www.w3.org/2000/svg">
<g clip-path="url(#clip0_3_610)">
<path fill-rule="evenodd" clip-rule="evenodd" d="M20.25 4.5H3.75C2.92157 4.5 2.25 5.17157 2.25 6V21C2.24647 21.5843 2.58587 22.1163 3.11719 22.3594C3.3154 22.4517 3.53135 22.4997 3.75 22.5C4.10213 22.4992 4.44258 22.3736 4.71094 22.1456C4.71541 22.1427 4.7195 22.1392 4.72312 22.1353L7.73438 19.5H20.25C21.0784 19.5 21.75 18.8284 21.75 18V6C21.75 5.17157 21.0784 4.5 20.25 4.5ZM20.25 18H7.73438C7.38115 17.9998 7.03919 18.1243 6.76875 18.3516L6.7575 18.3619L3.75 21V6H20.25V18Z" fill="#121417"/>
</g>
<defs>
<clipPath id="clip0_3_610">
<rect width="24" height="24" fill="white"/>
</clipPath>
</defs>
</svg>
