<svg width="24" height="24" viewBox="0 0 24 24" fill="none" xmlns="http://www.w3.org/2000/svg">
<g clip-path="url(#clip0_3_602)">
<path fill-rule="evenodd" clip-rule="evenodd" d="M21.75 19.5C21.75 19.9142 21.4142 20.25 21 20.25H3C2.58579 20.25 2.25 19.9142 2.25 19.5V4.5C2.25 4.08579 2.58579 3.75 3 3.75C3.41421 3.75 3.75 4.08579 3.75 4.5V14.6897L8.46937 9.96937C8.61005 9.82854 8.80094 9.74941 9 9.74941C9.19906 9.74941 9.38995 9.82854 9.53063 9.96937L12 12.4397L16.9397 7.5H15C14.5858 7.5 14.25 7.16421 14.25 6.75C14.25 6.33579 14.5858 6 15 6H18.75C19.1642 6 19.5 6.33579 19.5 6.75V10.5C19.5 10.9142 19.1642 11.25 18.75 11.25C18.3358 11.25 18 10.9142 18 10.5V8.56031L12.5306 14.0306C12.3899 14.1715 12.1991 14.2506 12 14.2506C11.8009 14.2506 11.6101 14.1715 11.4694 14.0306L9 11.5603L3.75 16.8103V18.75H21C21.4142 18.75 21.75 19.0858 21.75 19.5Z" fill="#121417"/>
</g>
<defs>
<clipPath id="clip0_3_602">
<rect width="24" height="24" fill="white"/>
</clipPath>
</defs>
</svg>
