<svg width="24" height="25" viewBox="0 0 24 25" fill="none" xmlns="http://www.w3.org/2000/svg">
<g clip-path="url(#clip0_1_429)">
<path fill-rule="evenodd" clip-rule="evenodd" d="M12 8C9.51472 8 7.5 10.0147 7.5 12.5C7.5 14.9853 9.51472 17 12 17C14.4853 17 16.5 14.9853 16.5 12.5C16.4974 10.0158 14.4842 8.00258 12 8ZM12 15.5C10.3431 15.5 9 14.1569 9 12.5C9 10.8431 10.3431 9.5 12 9.5C13.6569 9.5 15 10.8431 15 12.5C15 14.1569 13.6569 15.5 12 15.5ZM16.5 2.75H7.5C4.60179 2.7531 2.2531 5.10179 2.25 8V17C2.2531 19.8982 4.60179 22.2469 7.5 22.25H16.5C19.3982 22.2469 21.7469 19.8982 21.75 17V8C21.7469 5.10179 19.3982 2.7531 16.5 2.75ZM20.25 17C20.25 19.0711 18.5711 20.75 16.5 20.75H7.5C5.42893 20.75 3.75 19.0711 3.75 17V8C3.75 5.92893 5.42893 4.25 7.5 4.25H16.5C18.5711 4.25 20.25 5.92893 20.25 8V17ZM18 7.625C18 8.24632 17.4963 8.75 16.875 8.75C16.2537 8.75 15.75 8.24632 15.75 7.625C15.75 7.00368 16.2537 6.5 16.875 6.5C17.4963 6.5 18 7.00368 18 7.625Z" fill="#637587"/>
</g>
<defs>
<clipPath id="clip0_1_429">
<rect width="24" height="24" fill="white" transform="translate(0 0.5)"/>
</clipPath>
</defs>
</svg>
