<svg width="24" height="24" viewBox="0 0 24 24" fill="none" xmlns="http://www.w3.org/2000/svg">
<g clip-path="url(#clip0_1_75)">
<path fill-rule="evenodd" clip-rule="evenodd" d="M17.0306 15.9694C17.1715 16.1101 17.2506 16.3009 17.2506 16.5C17.2506 16.6991 17.1715 16.8899 17.0306 17.0306L12.5306 21.5306C12.3899 21.6715 12.1991 21.7506 12 21.7506C11.8009 21.7506 11.6101 21.6715 11.4694 21.5306L6.96938 17.0306C6.67632 16.7376 6.67632 16.2624 6.96938 15.9694C7.26243 15.6763 7.73757 15.6763 8.03063 15.9694L12 19.9397L15.9694 15.9694C16.1101 15.8285 16.3009 15.7494 16.5 15.7494C16.6991 15.7494 16.8899 15.8285 17.0306 15.9694ZM8.03063 8.03063L12 4.06031L15.9694 8.03063C16.2624 8.32368 16.7376 8.32368 17.0306 8.03063C17.3237 7.73757 17.3237 7.26243 17.0306 6.96938L12.5306 2.46937C12.3899 2.32854 12.1991 2.24941 12 2.24941C11.8009 2.24941 11.6101 2.32854 11.4694 2.46937L6.96938 6.96938C6.67632 7.26243 6.67632 7.73757 6.96938 8.03063C7.26243 8.32368 7.73757 8.32368 8.03063 8.03063Z" fill="#637587"/>
</g>
<defs>
<clipPath id="clip0_1_75">
<rect width="24" height="24" fill="white"/>
</clipPath>
</defs>
</svg>
