<svg width="20" height="21" viewBox="0 0 20 21" fill="none" xmlns="http://www.w3.org/2000/svg">
<g clip-path="url(#clip0_5_128)">
<path fill-rule="evenodd" clip-rule="evenodd" d="M18.3203 9.26406L14.7969 12.3391L15.8523 16.9172C15.9665 17.4065 15.7766 17.9166 15.3703 18.2121C14.964 18.5077 14.4202 18.5312 13.9898 18.2719L9.99687 15.85L6.0125 18.2719C5.58216 18.5312 5.03836 18.5077 4.63203 18.2121C4.22569 17.9166 4.03581 17.4065 4.15 16.9172L5.20391 12.3438L1.67969 9.26406C1.29858 8.93537 1.15176 8.41017 1.30717 7.93149C1.46257 7.45281 1.8899 7.11402 2.39141 7.07188L7.03672 6.66953L8.85 2.34453C9.04363 1.88049 9.49718 1.57828 10 1.57828C10.5028 1.57828 10.9564 1.88049 11.15 2.34453L12.9688 6.66953L17.6125 7.07188C18.114 7.11402 18.5413 7.45281 18.6967 7.93149C18.8521 8.41017 18.7053 8.93537 18.3242 9.26406H18.3203Z" fill="#121417"/>
</g>
<defs>
<clipPath id="clip0_5_128">
<rect width="20" height="20" fill="white" transform="translate(0 0.328125)"/>
</clipPath>
</defs>
</svg>
