<svg width="24" height="25" viewBox="0 0 24 25" fill="none" xmlns="http://www.w3.org/2000/svg">
<g clip-path="url(#clip0_1_422)">
<path fill-rule="evenodd" clip-rule="evenodd" d="M23.1928 6.96313C23.0768 6.68285 22.8033 6.50006 22.5 6.5H19.6472C18.8359 5.11972 17.3604 4.26579 15.7594 4.25C14.5747 4.23446 13.4339 4.69754 12.5953 5.53438C11.7322 6.38138 11.2472 7.54071 11.25 8.75V9.32094C7.47563 8.32531 4.38844 5.255 4.35563 5.22219C4.15019 5.01493 3.84318 4.94566 3.56865 5.04461C3.29411 5.14356 3.1019 5.39277 3.07594 5.68344C2.67188 10.1637 3.97312 13.1619 5.13844 14.8878C5.70664 15.741 6.39786 16.5055 7.18969 17.1566C5.76188 18.8 3.51375 19.6634 3.48938 19.6728C3.27498 19.7531 3.109 19.9269 3.03868 20.1448C2.96837 20.3627 3.00142 20.6008 3.12844 20.7913C3.19875 20.8962 3.48 21.2647 4.16719 21.6087C5.01656 22.0344 6.13875 22.25 7.5 22.25C14.1253 22.25 19.6612 17.1481 20.2266 10.5837L23.0306 7.78062C23.2451 7.56601 23.3091 7.24335 23.1928 6.96313ZM18.9741 9.72031C18.8455 9.84921 18.7682 10.0205 18.7566 10.2022C18.375 16.1169 13.4325 20.75 7.5 20.75C6.51 20.75 5.8125 20.6187 5.32312 20.4613C6.40219 19.8753 7.90688 18.8675 8.87438 17.4163C8.98915 17.2438 9.02746 17.0315 8.98023 16.8298C8.93299 16.628 8.80442 16.4548 8.625 16.3512C8.58094 16.3259 4.50844 13.8819 4.5 7.35125C6 8.57 8.74219 10.4609 11.8753 10.9878C12.0927 11.0245 12.3151 10.9636 12.4836 10.8215C12.6521 10.6794 12.7495 10.4704 12.75 10.25V8.75C12.7483 7.94176 13.0728 7.16702 13.65 6.60125C14.2034 6.04686 14.9574 5.73983 15.7406 5.75C16.9275 5.765 18.0366 6.48875 18.5006 7.55094C18.6202 7.82382 18.8899 8.00008 19.1878 8H20.6878L18.9741 9.72031Z" fill="#637587"/>
</g>
<defs>
<clipPath id="clip0_1_422">
<rect width="24" height="24" fill="white" transform="translate(0 0.5)"/>
</clipPath>
</defs>
</svg>
